<?xml version="1.0" encoding="utf-8"?>
<!DOCTYPE svg PUBLIC "-//W3C//DTD SVG 1.0//EN" "http://www.w3.org/TR/2001/REC-SVG-20010904/DTD/svg10.dtd">
<svg version="1.0" xmlns="http://www.w3.org/2000/svg" width="200px" height="200px" viewBox="0 0 200 200" preserveAspectRatio="xMidYMid meet">
 <g fill="#de0526">
  <path d="M 88.7 125.3 c -0.4 -0.3 -0.7 -2.5 -0.7 -4.8 0 -4.1 0.1 -4.3 3.8 -4.9 5.7 -0.9 9.7 -0.7 11 0.6 1.6 1.6 1.6 7 0 8.6 -1.3 1.3 -13 1.7 -14.1 0.5 z "/>
  <path d="M 120.7 123.4 c -0.4 -0.4 -0.7 -2.7 -0.7 -5.1 0 -4.4 0 -4.4 6.3 -4.1 6.2 0.3 6.2 0.3 6.2 4.8 0 4.5 0 4.5 -5.5 4.8 -3.1 0.2 -5.9 0 -6.3 -0.4 z "/>
  <path d="M 147.7 117.4 c -0.4 -0.4 -0.7 -2.4 -0.7 -4.5 0 -4.6 1.9 -5.9 8.5 -5.9 4.6 0 4.6 0 4.3 5.3 -0.3 5.2 -0.3 5.2 -5.8 5.5 -3.1 0.2 -5.9 0 -6.3 -0.4 z "/>
 </g>
 <g fill="#e6e6e6">
  <path d="M 89 170.9 c -4.7 -0.4 -13 -2 -18.5 -3.5 -5.5 -1.5 -11.6 -2.9 -13.5 -3.1 -11.2 -1.2 -15.9 -2 -17.1 -3 -0.8 -0.7 -6.8 -11.7 -13.4 -24.6 -11.9 -23.3 -11.9 -23.3 -10.6 -27.5 1.3 -3.9 1.3 -4.6 -0.9 -9.1 -2 -4.3 -2.2 -6 -1.8 -14.7 0.4 -9.9 0.4 -9.9 7.5 -23.9 3.9 -7.7 8.7 -15.8 10.7 -18 2 -2.2 3.6 -4.2 3.6 -4.5 0 -1 8.3 -3 14.5 -3.5 3.3 -0.3 8 -0.8 10.5 -1.1 2.5 -0.2 6.5 -0.7 9 -0.9 2.5 -0.3 6.3 -0.7 8.5 -1 4.2 -0.5 8.4 -0.9 20 -2 3.9 -0.4 7.2 -0.7 7.5 -0.8 0.3 0 1.7 0.3 3.2 0.7 1.7 0.5 3.6 0.3 5.4 -0.7 2 -1 3.7 -1.2 6.5 -0.6 2.2 0.5 6.7 1.3 10.1 1.9 3.5 0.5 7.2 1.1 8.3 1.4 11.6 2.7 14.4 3.2 20.5 4.1 1.4 0.2 2.8 0.3 3.1 0.4 0.3 0.1 2.1 2.2 4 4.9 3.6 5.1 3.9 5.5 7 9.2 1.2 1.4 4.9 8.1 8.3 15 6.2 12.5 6.2 12.5 6.1 32.8 0 20.2 0 20.2 -11.5 42.9 -11.5 22.6 -11.5 22.6 -18.6 24.4 -9.3 2.3 -14.8 3 -31.9 4.3 -15.3 1.1 -27.6 1.3 -36.5 0.5 z  m 10.9 -49.3 c 1.8 -2.1 -0.9 -3.6 -5.2 -2.9 -3.4 0.5 -4.7 2 -3 3.6 1.2 1.2 7 0.7 8.2 -0.7 z  m 29.6 -2.6 c 0 -1 -1.2 -1.6 -3.2 -1.8 -3.2 -0.3 -4.5 1.3 -2.6 3.2 1.3 1.2 5.8 0.2 5.8 -1.4 z  m 27.3 -6.8 c 0.4 -2.6 -2.3 -3 -5.3 -0.9 -2.4 1.8 -1 3.8 2.3 3.4 1.9 -0.2 2.8 -1 3 -2.5 z "/>
 </g>
 <g fill="#000000">
  <path d="M84 147.7 c-2.5 -0.7 -9.8 -4 -16.2 -7.3 -8 -4.1 -12.2 -5.8 -13.5 -5.3 -7.9 3.2 -19 -3.2 -24.1 -13.7 -1 -2.1 -2.3 -3.4 -3.5 -3.4 -1 0 -3.2 -0.9 -4.8 -2.1 -2.9 -2 -2.9 -2 -2.9 -21.3 0 -17.7 0.2 -19.5 2 -21.8 1.1 -1.4 3 -2.8 4.2 -3.1 25.4 -5.9 87.8 -18.7 90.9 -18.7 3.2 0 7.8 1.4 22.9 7.2 28.3 10.7 39 15.2 40.4 16.7 1.3 1.5 1.6 5.1 1.6 22.6 0 20.3 -0.1 20.9 -2.4 25 -4.1 6.9 -16.7 15.4 -30.1 20.2 -13.9 5 -53.8 8.1 -64.5 5z m32.4 -4.7 c15.7 -1.5 28.9 -4.6 38.3 -9 9.7 -4.5 14.6 -8.1 18.5 -13.4 2.8 -3.9 2.8 -3.9 2.8 -19.8 0 -16 0 -16 -3.2 -13.9 -9.3 6.1 -21.3 10.6 -36.3 13.6 -8.5 1.7 -43.5 4.1 -46 3.1 -4 -1.5 0.6 -2.5 15.5 -3.5 20 -1.3 36.2 -3.6 44.2 -6.2 13.2 -4.4 25.8 -11.4 25.8 -14.3 0 -0.7 -3.8 -2.7 -8.4 -4.4 -9 -3.4 -10 -3.7 -9.1 -2.3 0.8 1.4 -3.3 3.4 -5.2 2.7 -2.2 -0.9 -5.6 2.3 -4.3 3.9 0.7 0.9 0.6 1.6 -0.4 2.4 -1 0.9 -2.7 0.8 -7.2 -0.4 -7.1 -1.8 -8.4 -2.9 -6.2 -5.1 1.4 -1.4 2.3 -1.5 5.7 -0.6 2.3 0.5 3.8 0.6 3.5 0.1 -0.3 -0.5 -1.4 -0.9 -2.5 -0.9 -1.1 0 -2.2 -0.7 -2.5 -1.5 -0.9 -2.3 1.6 -4.6 4.4 -4.3 3.5 0.4 3.9 -1.8 0.5 -3 -1.5 -0.6 -6.5 -2.4 -10.9 -4.1 -7.9 -2.9 -8.2 -2.9 -8.7 -1.1 -0.3 1.4 -1.5 2.1 -3.4 2.2 -1.5 0 -4.1 0.2 -5.8 0.3 -3.7 0.3 -9.5 -2.1 -9.5 -3.9 0 -1 -4.3 -0.4 -18.7 2.6 -10.4 2.1 -23.5 4.9 -29.3 6 -5.8 1.2 -10.9 2.6 -11.5 3.1 -0.7 0.7 -0.4 0.8 0.8 0.4 1 -0.4 2.5 -0.3 3.5 0.2 0.9 0.5 2.5 1.2 3.5 1.5 1.2 0.4 1.7 1.4 1.5 2.8 -0.2 1.8 -1 2.3 -3.3 2.4 -1.6 0 -4 0.6 -5.2 1.3 -2.7 1.4 -6.8 -0.2 -5.7 -2.2 0.5 -0.9 0.4 -0.9 -0.6 0 -1.8 1.7 -5 -0.2 -5 -2.8 0 -1.5 -0.5 -1.9 -1.7 -1.6 -1 0.3 -3.1 0.8 -4.8 1.2 -4.1 0.9 -5.9 0 35.5 17.7 9.1 3.9 17.3 7.7 18.3 8.6 1.6 1.4 1.8 3.4 1.5 21.4 -0.3 22.4 -1.1 20.4 7.7 21.1 8.3 0.7 13.3 0.7 23.9 -0.3z m-35.4 -21.2 c-0.6 -21.4 2.1 -18.4 -27 -30.9 -4.1 -1.7 -11.9 -5.1 -17.3 -7.5 -5.4 -2.4 -10.3 -4.4 -10.8 -4.4 -0.5 0 -0.9 3.9 -0.9 8.8 0.1 8.2 0.2 8.5 1.4 5.6 3.1 -7.1 10.4 -9.3 17.7 -5.2 6.7 3.7 14 14.8 15.4 23.3 1.2 7.2 1.4 7.6 3.5 6.5 1.5 -0.8 2.2 -0.5 3.4 1.2 2 2.8 2 4.2 0 5.9 -1.4 1.1 -1.9 0.9 -3.5 -1.1 -1.9 -2.5 -1.9 -2.5 -1.9 2 0 4.5 0 4.5 9.8 9.7 5.3 2.9 9.9 5.3 10.2 5.3 0.3 0 0.3 -8.6 0 -19.2z m-24.1 4.3 c0 -1.5 -0.3 -2 -0.6 -1.1 -0.3 0.8 -1 2.3 -1.5 3.2 -0.6 1.4 -0.5 1.6 0.7 1.2 0.8 -0.4 1.5 -1.8 1.4 -3.3z m-6.1 -3.3 c1 -2.4 1.2 -5.3 0.8 -8.2 -0.7 -4.3 -0.8 -4.4 -2.5 -2.8 -1.5 1.4 -1.6 1.9 -0.4 3.3 2 2.4 1.6 4.8 -1.2 6.1 -2.2 1 -2.9 0.7 -6 -2.3 -3.4 -3.3 -4.5 -7.1 -2.5 -8.4 0.7 -0.4 0.5 -1.4 -0.5 -2.8 -2 -2.9 -1.9 -3.4 1.1 -5.3 2.5 -1.7 2.6 -1.6 6.6 2.2 4 3.9 4 3.9 2.4 0.7 -2 -4 -6.2 -7.3 -9.2 -7.3 -3.5 0 -5.8 5.1 -5.1 11.6 1.4 13.8 12.8 22.9 16.5 13.2z m-14.5 -31.3 c3.1 -1.4 3.1 -1.4 0.6 -1.5 -3.5 0 -6.7 2.7 -7.4 6.5 -0.7 3 -0.7 3 1.4 -0.3 1.2 -1.8 3.6 -3.9 5.4 -4.7z m12.7 5.2 c0 -0.2 -1 -1.2 -2.2 -2.3 -2.3 -1.9 -2.3 -1.9 -0.4 0.4 1.8 2.1 2.6 2.7 2.6 1.9z"/>
  <path d="M88.4 123.6 c-0.3 -0.8 -0.4 -2.7 -0.2 -4.3 0.3 -2.8 0.4 -2.8 6.8 -2.6 6.5 0.1 6.5 0.1 6.5 4 0 3.8 0 3.8 -6.3 4.1 -4.7 0.2 -6.4 -0.1 -6.8 -1.2z m9.4 -3.3 c-1 -0.2 -2.6 -0.2 -3.5 0 -1 0.3 -0.2 0.5 1.7 0.5 1.9 0 2.7 -0.2 1.8 -0.5z"/>
  <path d="M121.3 122.4 c-0.2 -0.7 -0.3 -2.5 -0.1 -4.1 0.3 -2.5 0.8 -2.9 5 -3.7 6.2 -1.1 7.8 -0.4 7.8 3.3 0 3.6 -0.6 4 -7.1 5 -3.8 0.6 -5.2 0.5 -5.6 -0.5z"/>
  <path d="M148.7 117.3 c-0.4 -0.3 -0.7 -1.9 -0.7 -3.5 0 -2.3 0.6 -3.2 3.3 -4.3 6.2 -2.6 7.2 -2.4 7.2 1.5 0 2.7 -0.5 3.7 -2.5 4.6 -4 1.9 -6.6 2.5 -7.3 1.7z m7.3 -5.2 c0 -0.5 -0.9 -0.7 -2 -0.4 -1.1 0.3 -2 0.7 -2 0.9 0 0.2 0.9 0.4 2 0.4 1.1 0 2 -0.4 2 -0.9z"/>
  <path d="M167.7 109.3 c-1.9 -1.8 -0.6 -6.3 2.5 -8.7 3.7 -2.8 5.1 -2.2 4.6 1.9 -0.3 2.8 -5.9 8.1 -7.1 6.8z"/>
  <path d="M125.1 95.6 c-0.7 -0.9 -1.1 -2.3 -0.7 -3.1 0.7 -2 12.8 -2.1 14.5 -0.1 1.7 2 -0.4 3.2 -7 4 -4.4 0.6 -5.8 0.4 -6.8 -0.8z"/>
  <path d="M75 95 c-0.8 -0.5 -2.3 -1.1 -3.3 -1.4 -4.6 -1.4 -1.8 -7.3 2.9 -6.2 1.3 0.4 2.7 0 3.4 -0.9 1.6 -1.9 4.4 -1.9 6 0 0.7 0.8 2.3 1.5 3.5 1.5 1.2 0 2.9 0.7 3.6 1.6 1.1 1.4 1 1.9 -1 3.5 -1.5 1.2 -3.1 1.7 -4.6 1.3 -1.3 -0.3 -2.6 -0.1 -2.9 0.5 -0.8 1.3 -5.5 1.4 -7.6 0.1z"/>
  <path d="M113.1 94.9 c-5.2 -1 -7.7 -3 -6.7 -5.4 0.5 -1.3 1.3 -1.5 3.8 -1 7.5 1.7 10.3 3 10.3 5 0 2.3 -1.5 2.6 -7.4 1.4z"/>
  <path d="M142.9 93.3 c-1.2 -1.3 -1 -1.8 1 -3.2 1.3 -0.9 3.7 -2.9 5.2 -4.5 2.4 -2.3 3.2 -2.6 4.4 -1.6 0.8 0.7 1.5 1.8 1.5 2.4 0 1.6 -3.7 5 -7.6 7 -2.9 1.4 -3.3 1.4 -4.5 -0.1z"/>
  <path d="M101 86.5 c-1 -1.2 -0.9 -1.9 0.3 -3.8 1.9 -2.9 8 -6.2 10.1 -5.4 2.7 1 1.8 3.7 -1.6 5.2 -1.8 0.7 -3.9 2.3 -4.6 3.4 -1.5 2.5 -2.5 2.6 -4.2 0.6z"/>
  <path d="M116.1 78.6 c-1.8 -2.1 1 -3.7 7.8 -4.3 5.2 -0.5 6.2 -0.3 6.7 1.2 0.5 1.2 0.1 2.3 -1.1 3.1 -2.5 1.8 -11.9 1.8 -13.4 0z"/>
  <path d="M87.3 72.5 c-1.8 -0.8 -3.3 -1.8 -3.3 -2.3 0 -4.5 13.2 -6.4 17.1 -2.5 2.6 2.6 1.9 3.9 -2.9 5.3 -4.8 1.3 -7 1.2 -10.9 -0.5z m9 -3.2 c-1.3 -0.2 -3.5 -0.2 -5 0 -1.6 0.2 -0.5 0.4 2.2 0.4 2.8 0 4 -0.2 2.8 -0.4z"/>
  <path d="M73.7 113.2 c-2.2 -2.4 -2.1 -4.5 0.1 -6.6 1.8 -1.5 2 -1.5 3.5 0.2 2 2.2 2.2 5.3 0.5 7 -1.6 1.6 -2.2 1.5 -4.1 -0.6z"/>
  <path d="M62.5 106.3 c-1.7 -2.5 -1.7 -2.7 0.1 -4 2.6 -1.9 3.3 -1.6 4.4 1.3 0.7 1.9 0.7 3.1 -0.1 4 -1.6 2 -2.4 1.8 -4.4 -1.3z"/>
 </g>
</svg>