<?xml version="1.0" standalone="no"?>
<!DOCTYPE svg PUBLIC "-//W3C//DTD SVG 20010904//EN"
 "http://www.w3.org/TR/2001/REC-SVG-20010904/DTD/svg10.dtd">
<svg version="1.0" xmlns="http://www.w3.org/2000/svg"
 width="156.041589pt" height="91.757832pt" viewBox="0 0 156.041589 91.757832"
 preserveAspectRatio="xMidYMid meet">
<metadata>
Created by potrace 1.12, written by Peter Selinger 2001-2015
</metadata>
<g transform="translate(-22.000000,145.885158) scale(0.100000,-0.100000)"
fill="#000000" stroke="none">
<path d="M1070 1449 c-38 -9 -364 -79 -635 -135 -93 -20 -180 -42 -193 -50
-22 -14 -22 -18 -22 -204 0 -177 1 -190 19 -200 11 -5 24 -10 29 -10 6 0 12
46 14 106 3 102 4 107 31 130 17 15 41 24 61 24 50 0 51 -12 4 -30 -57 -21
-82 -64 -82 -144 1 -155 124 -290 234 -257 35 10 42 8 171 -61 l134 -73 162
-3 c249 -6 452 33 602 115 85 46 123 76 155 122 l26 38 -2 209 -3 209 -35 16
c-19 9 -116 47 -215 84 -99 37 -213 80 -253 96 -75 30 -134 35 -202 18z m205
-39 c44 -16 152 -56 240 -90 88 -34 179 -69 202 -77 72 -25 65 -54 -27 -113
-26 -17 -68 -37 -94 -46 -55 -19 -57 -28 -3 -13 20 5 67 30 103 54 37 25 68
45 70 45 2 0 4 -72 4 -161 0 -186 -6 -206 -79 -270 -131 -116 -366 -181 -656
-182 -173 -1 -186 2 -332 80 l-103 54 0 58 c0 119 -37 236 -95 303 -40 46 -95
78 -134 78 -76 0 -111 -55 -111 -175 0 -44 -4 -75 -10 -75 -7 0 -10 65 -8 187
l3 188 145 31 c80 17 235 50 345 74 110 23 247 52 305 65 116 25 120 25 235
-15z m-781 -376 c53 -70 78 -144 79 -243 l2 -84 -33 -14 -33 -13 23 31 c20 26
23 43 23 112 -1 69 -5 90 -27 132 -26 50 -65 92 -103 113 -19 11 -18 11 7 12
21 0 36 -11 62 -46z m-34 -10 c22 -20 40 -41 40 -46 0 -6 -18 6 -40 26 -22 20
-50 36 -62 36 -22 0 -68 -36 -68 -53 0 -5 9 2 21 17 28 35 61 33 106 -8 21
-19 43 -34 48 -34 6 0 18 -29 29 -65 23 -78 16 -143 -19 -181 -37 -40 -70 -34
-126 23 -58 61 -83 128 -77 212 8 109 73 141 148 73z"/>
<path d="M1142 1412 c3 -11 0 -19 -8 -19 -8 0 -14 7 -14 14 0 9 -8 13 -20 11
-12 -2 -21 -7 -21 -13 0 -5 9 -11 21 -13 11 -2 20 -8 20 -13 0 -5 12 -9 26 -9
21 0 25 4 21 20 -6 23 1 25 26 5 11 -7 25 -11 33 -8 23 9 16 23 -11 23 -14 0
-25 5 -25 10 0 6 -12 10 -26 10 -21 0 -25 -4 -22 -18z"/>
<path d="M857 1313 c-10 -9 13 -33 32 -32 10 0 6 4 -9 10 -20 8 -22 12 -10 19
8 5 10 10 4 10 -6 0 -14 -3 -17 -7z"/>
<path d="M1473 1289 c6 -23 -11 -25 -28 -2 -14 19 -45 11 -45 -12 0 -9 9 -15
24 -15 14 0 28 -4 31 -10 3 -5 15 -10 27 -10 16 0 19 4 14 25 -5 19 -3 23 9
19 8 -4 15 -9 15 -13 0 -3 11 -6 25 -6 14 0 25 6 25 14 0 7 -6 11 -15 7 -8 -3
-20 0 -27 7 -7 7 -24 13 -37 14 -18 2 -22 -2 -18 -18z"/>
<path d="M440 1273 c0 -3 5 -13 11 -24 10 -19 9 -20 -13 -8 -28 17 -68 21 -68
8 0 -5 11 -9 25 -9 14 0 28 -6 30 -12 3 -7 16 -14 30 -14 18 -1 25 3 25 16 0
10 -6 21 -12 23 -8 3 -6 6 5 6 10 1 20 -6 23 -14 4 -8 14 -15 23 -15 14 0 14
2 1 10 -13 8 -13 10 2 10 9 0 19 -6 21 -12 3 -8 6 -6 6 5 1 12 -7 17 -24 17
-14 0 -25 4 -25 8 0 5 -13 9 -30 9 -16 0 -30 -2 -30 -4z"/>
<path d="M1211 1236 c10 -8 89 -13 89 -5 0 5 -21 9 -47 9 -25 0 -44 -2 -42 -4z"/>
<path d="M1357 1234 c-12 -12 3 -22 23 -17 11 3 17 9 14 14 -6 10 -28 12 -37
3z"/>
<path d="M1048 1189 c-18 -17 -27 -28 -20 -24 6 3 12 1 12 -6 0 -8 4 -8 15 1
12 10 13 15 4 21 -8 4 -2 12 17 23 16 8 23 15 17 16 -7 0 -27 -14 -45 -31z"/>
<path d="M1453 1209 c9 -6 14 -16 11 -22 -5 -8 -2 -7 7 1 12 11 12 14 -1 22
-8 5 -19 10 -25 10 -5 -1 -2 -5 8 -11z"/>
<path d="M355 1185 c143 -68 244 -108 170 -68 -37 20 -206 93 -214 92 -3 0 17
-11 44 -24z"/>
<path d="M1510 1150 c0 -5 -10 -19 -22 -30 -20 -18 -20 -20 -4 -14 15 6 17 4
11 -7 -5 -8 -4 -11 0 -6 5 4 10 13 11 20 1 7 5 20 9 30 4 9 4 17 1 17 -3 0 -6
-4 -6 -10z"/>
<path d="M791 1131 c-20 -13 -5 -41 21 -40 22 1 22 1 -2 9 -23 7 -24 8 -3 9
12 1 27 -7 33 -16 8 -13 13 -14 16 -5 3 6 12 12 19 12 7 0 16 -6 18 -12 3 -8
6 -6 6 5 1 12 -7 17 -28 17 -16 0 -31 6 -35 15 -6 17 -24 19 -45 6z"/>
<path d="M736 1109 c4 -8 0 -9 -15 -4 -25 8 -30 -19 -5 -29 24 -9 42 -6 19 4
-17 7 -17 9 -3 9 10 1 22 -8 28 -20 8 -14 19 -19 36 -17 31 4 32 22 2 26 -13
2 -31 12 -41 23 -19 21 -32 26 -21 8z"/>
<path d="M605 1076 c28 -14 55 -25 60 -25 15 0 -56 36 -85 43 -14 3 -2 -5 25
-18z"/>
<path d="M1070 1096 c0 -2 6 -9 14 -15 10 -9 15 -8 19 2 3 8 -3 13 -14 14 -10
1 -19 0 -19 -1z"/>
<path d="M1456 1088 c5 -8 1 -9 -12 -4 -14 5 -16 4 -7 -4 7 -8 17 -9 28 -3 16
9 16 10 1 16 -12 5 -15 3 -10 -5z"/>
<path d="M750 1012 l75 -37 5 -190 6 -190 2 193 2 193 -76 34 c-100 46 -109
44 -14 -3z"/>
<path d="M1193 993 c9 -2 25 -2 35 0 9 3 1 5 -18 5 -19 0 -27 -2 -17 -5z"/>
<path d="M1702 984 c-21 -14 -32 -64 -14 -64 20 0 52 34 52 56 0 28 -7 30 -38
8z"/>
<path d="M1068 983 c18 -2 45 -2 60 0 15 2 0 4 -33 4 -33 0 -45 -2 -27 -4z"/>
<path d="M633 968 c-14 -16 9 -54 26 -43 14 8 14 17 -2 39 -11 15 -15 15 -24
4z"/>
<path d="M918 973 c12 -2 30 -2 40 0 9 3 -1 5 -23 4 -22 0 -30 -2 -17 -4z"/>
<path d="M736 913 c-6 -14 -5 -16 5 -5 17 16 29 15 29 -3 0 -8 -6 -14 -12 -12
-7 1 -13 -5 -13 -13 0 -8 7 -15 15 -15 22 0 20 59 -1 63 -9 2 -20 -5 -23 -15z"/>
<path d="M1533 903 c-36 -12 -43 -19 -43 -40 0 -24 2 -25 37 -20 45 8 55 18
51 49 -3 25 -3 25 -45 11z"/>
<path d="M1253 843 c-29 -4 -33 -8 -33 -34 0 -26 3 -29 33 -29 59 0 77 10 77
41 0 31 -1 31 -77 22z"/>
<path d="M631 807 c-7 -9 -8 -18 -2 -21 5 -3 12 0 15 6 4 7 4 3 2 -10 -3 -14
0 -22 7 -19 17 5 19 21 4 41 -11 16 -15 16 -26 3z"/>
<path d="M890 790 l0 -30 60 0 60 0 0 30 0 30 -60 0 -60 0 0 -30z"/>
<path d="M403 973 c-16 -6 -17 -24 -2 -20 6 1 14 -4 17 -12 3 -10 0 -12 -12
-8 -12 5 -16 3 -14 -5 9 -26 33 -14 31 15 -1 18 2 25 9 21 7 -4 8 -2 4 4 -8
13 -13 14 -33 5z"/>
<path d="M323 925 c0 -27 2 -38 4 -22 2 15 2 37 0 50 -2 12 -4 0 -4 -28z"/>
<path d="M445 921 c-3 -6 -1 -11 4 -11 6 0 11 -7 11 -16 0 -13 -3 -14 -15 -4
-19 16 -55 3 -55 -20 0 -24 17 -35 54 -36 17 0 31 -6 34 -15 3 -11 2 -11 -7 1
-9 13 -11 12 -11 -4 0 -15 -3 -16 -15 -6 -11 9 -15 9 -15 1 0 -19 30 -25 46
-9 18 18 8 48 -17 48 -10 0 -24 10 -30 23 -11 20 -11 21 4 9 23 -20 59 -6 55
21 -3 23 -32 35 -43 18z m-25 -56 c0 -8 -4 -15 -10 -15 -5 0 -10 7 -10 15 0 8
5 15 10 15 6 0 10 -7 10 -15z"/>
<path d="M340 837 c0 -4 9 -26 20 -48 22 -42 71 -79 106 -79 25 0 68 44 61 62
-4 9 -6 8 -6 -3 -1 -22 -33 -49 -59 -49 -28 0 -78 44 -102 89 -10 20 -19 32
-20 28z"/>
</g>
</svg>
